<mxfile host="app.diagrams.net" agent="Mozilla/5.0 (Windows NT 10.0; Win64; x64) AppleWebKit/537.36 (KHTML, like Gecko) Chrome/129.0.0.0 Safari/537.36" version="26.2.12">
  <diagram id="C5RBs43oDa-KdzZeNtuy" name="Page-1">
    <mxGraphModel dx="1648" dy="2138" grid="1" gridSize="10" guides="1" tooltips="1" connect="1" arrows="1" fold="1" page="1" pageScale="1" pageWidth="827" pageHeight="1169" math="0" shadow="0">
      <root>
        <mxCell id="WIyWlLk6GJQsqaUBKTNV-0" />
        <mxCell id="WIyWlLk6GJQsqaUBKTNV-1" parent="WIyWlLk6GJQsqaUBKTNV-0" />
        <mxCell id="42EEFeFm0QrcEyeCjbr3-292" value="&lt;div&gt;&lt;b&gt;&lt;font style=&quot;font-size: 25px;&quot;&gt;&lt;br&gt;&lt;/font&gt;&lt;/b&gt;&lt;/div&gt;&lt;div&gt;&lt;b style=&quot;background-color: transparent;&quot;&gt;&lt;font style=&quot;font-size: 25px;&quot;&gt;&amp;nbsp; &amp;nbsp;2025年徐汇区沿街商铺生活垃圾管理服务项目&lt;/font&gt;&lt;/b&gt;&lt;br&gt;&lt;/div&gt;" style="rounded=0;whiteSpace=wrap;html=1;sketch=1;hachureGap=4;jiggle=2;curveFitting=1;fontFamily=Verdana;verticalAlign=top;align=left;fontSize=20;fontColor=#000000;" vertex="1" parent="WIyWlLk6GJQsqaUBKTNV-1">
          <mxGeometry x="400" y="-130" width="910" height="1170" as="geometry" />
        </mxCell>
        <mxCell id="42EEFeFm0QrcEyeCjbr3-265" value="管理机构" style="whiteSpace=wrap;strokeWidth=2;hachureGap=4;fontFamily=Architects Daughter;fontSource=https%3A%2F%2Ffonts.googleapis.com%2Fcss%3Ffamily%3DArchitects%2BDaughter;fontSize=30;fontStyle=1;textShadow=1;" vertex="1" parent="WIyWlLk6GJQsqaUBKTNV-1">
          <mxGeometry x="550" y="524" width="160" height="76" as="geometry" />
        </mxCell>
        <mxCell id="42EEFeFm0QrcEyeCjbr3-266" value="项目领导小组" style="whiteSpace=wrap;strokeWidth=2;hachureGap=4;fontFamily=Architects Daughter;fontSource=https%3A%2F%2Ffonts.googleapis.com%2Fcss%3Ffamily%3DArchitects%2BDaughter;fontSize=20;fontStyle=0;textShadow=1;" vertex="1" parent="WIyWlLk6GJQsqaUBKTNV-1">
          <mxGeometry x="780" y="120" width="156" height="54" as="geometry" />
        </mxCell>
        <mxCell id="42EEFeFm0QrcEyeCjbr3-267" value="现场执行团队" style="whiteSpace=wrap;strokeWidth=2;hachureGap=4;fontFamily=Architects Daughter;fontSource=https%3A%2F%2Ffonts.googleapis.com%2Fcss%3Ffamily%3DArchitects%2BDaughter;fontSize=20;fontStyle=0;textShadow=1;" vertex="1" parent="WIyWlLk6GJQsqaUBKTNV-1">
          <mxGeometry x="780" y="536" width="156" height="54" as="geometry" />
        </mxCell>
        <mxCell id="42EEFeFm0QrcEyeCjbr3-268" value="质量监督小组" style="whiteSpace=wrap;strokeWidth=2;hachureGap=4;fontFamily=Architects Daughter;fontSource=https%3A%2F%2Ffonts.googleapis.com%2Fcss%3Ffamily%3DArchitects%2BDaughter;fontSize=20;fontStyle=0;textShadow=1;" vertex="1" parent="WIyWlLk6GJQsqaUBKTNV-1">
          <mxGeometry x="780" y="848" width="156" height="54" as="geometry" />
        </mxCell>
        <mxCell id="42EEFeFm0QrcEyeCjbr3-269" value="组长：公司副总级领导（项目经理）" style="whiteSpace=wrap;strokeWidth=2;hachureGap=4;fontFamily=Architects Daughter;fontSource=https%3A%2F%2Ffonts.googleapis.com%2Fcss%3Ffamily%3DArchitects%2BDaughter;fontSize=18;fontStyle=0;textShadow=1;" vertex="1" parent="WIyWlLk6GJQsqaUBKTNV-1">
          <mxGeometry x="1010" y="-40" width="220" height="60" as="geometry" />
        </mxCell>
        <mxCell id="42EEFeFm0QrcEyeCjbr3-270" value="成员：技术总监" style="whiteSpace=wrap;strokeWidth=2;hachureGap=4;fontFamily=Architects Daughter;fontSource=https%3A%2F%2Ffonts.googleapis.com%2Fcss%3Ffamily%3DArchitects%2BDaughter;fontSize=18;fontStyle=0;textShadow=1;" vertex="1" parent="WIyWlLk6GJQsqaUBKTNV-1">
          <mxGeometry x="1050" y="60" width="160" height="50" as="geometry" />
        </mxCell>
        <mxCell id="42EEFeFm0QrcEyeCjbr3-271" value="成员：运营经理" style="whiteSpace=wrap;strokeWidth=2;hachureGap=4;fontFamily=Architects Daughter;fontSource=https%3A%2F%2Ffonts.googleapis.com%2Fcss%3Ffamily%3DArchitects%2BDaughter;fontSize=18;fontStyle=0;textShadow=1;" vertex="1" parent="WIyWlLk6GJQsqaUBKTNV-1">
          <mxGeometry x="1050" y="180" width="160" height="50" as="geometry" />
        </mxCell>
        <mxCell id="42EEFeFm0QrcEyeCjbr3-272" value="成员：财务负责人" style="whiteSpace=wrap;strokeWidth=2;hachureGap=4;fontFamily=Architects Daughter;fontSource=https%3A%2F%2Ffonts.googleapis.com%2Fcss%3Ffamily%3DArchitects%2BDaughter;fontSize=18;fontStyle=0;textShadow=1;" vertex="1" parent="WIyWlLk6GJQsqaUBKTNV-1">
          <mxGeometry x="1050" y="290" width="160" height="50" as="geometry" />
        </mxCell>
        <mxCell id="42EEFeFm0QrcEyeCjbr3-273" value="宣传组" style="whiteSpace=wrap;strokeWidth=2;hachureGap=4;fontFamily=Architects Daughter;fontSource=https%3A%2F%2Ffonts.googleapis.com%2Fcss%3Ffamily%3DArchitects%2BDaughter;fontSize=18;fontStyle=0;textShadow=1;" vertex="1" parent="WIyWlLk6GJQsqaUBKTNV-1">
          <mxGeometry x="1050" y="390" width="160" height="50" as="geometry" />
        </mxCell>
        <mxCell id="42EEFeFm0QrcEyeCjbr3-274" value="核量组" style="whiteSpace=wrap;strokeWidth=2;hachureGap=4;fontFamily=Architects Daughter;fontSource=https%3A%2F%2Ffonts.googleapis.com%2Fcss%3Ffamily%3DArchitects%2BDaughter;fontSize=18;fontStyle=0;textShadow=1;" vertex="1" parent="WIyWlLk6GJQsqaUBKTNV-1">
          <mxGeometry x="1050" y="490" width="160" height="50" as="geometry" />
        </mxCell>
        <mxCell id="42EEFeFm0QrcEyeCjbr3-275" value="数据组" style="whiteSpace=wrap;strokeWidth=2;hachureGap=4;fontFamily=Architects Daughter;fontSource=https%3A%2F%2Ffonts.googleapis.com%2Fcss%3Ffamily%3DArchitects%2BDaughter;fontSize=18;fontStyle=0;textShadow=1;" vertex="1" parent="WIyWlLk6GJQsqaUBKTNV-1">
          <mxGeometry x="1050" y="600" width="160" height="50" as="geometry" />
        </mxCell>
        <mxCell id="42EEFeFm0QrcEyeCjbr3-276" value="客服组" style="whiteSpace=wrap;strokeWidth=2;hachureGap=4;fontFamily=Architects Daughter;fontSource=https%3A%2F%2Ffonts.googleapis.com%2Fcss%3Ffamily%3DArchitects%2BDaughter;fontSize=18;fontStyle=0;textShadow=1;" vertex="1" parent="WIyWlLk6GJQsqaUBKTNV-1">
          <mxGeometry x="1050" y="700" width="160" height="50" as="geometry" />
        </mxCell>
        <mxCell id="42EEFeFm0QrcEyeCjbr3-277" value="成员：采购人代表" style="whiteSpace=wrap;strokeWidth=2;hachureGap=4;fontFamily=Architects Daughter;fontSource=https%3A%2F%2Ffonts.googleapis.com%2Fcss%3Ffamily%3DArchitects%2BDaughter;fontSize=18;fontStyle=0;textShadow=1;" vertex="1" parent="WIyWlLk6GJQsqaUBKTNV-1">
          <mxGeometry x="1050" y="800" width="160" height="50" as="geometry" />
        </mxCell>
        <mxCell id="42EEFeFm0QrcEyeCjbr3-278" value="成员：第三方监理" style="whiteSpace=wrap;strokeWidth=2;hachureGap=4;fontFamily=Architects Daughter;fontSource=https%3A%2F%2Ffonts.googleapis.com%2Fcss%3Ffamily%3DArchitects%2BDaughter;fontSize=18;fontStyle=0;textShadow=1;" vertex="1" parent="WIyWlLk6GJQsqaUBKTNV-1">
          <mxGeometry x="1050" y="900" width="160" height="50" as="geometry" />
        </mxCell>
        <mxCell id="42EEFeFm0QrcEyeCjbr3-279" value="" style="curved=1;startArrow=none;endArrow=block;exitX=0.56;exitY=0;entryX=0;entryY=0.5;rounded=0;hachureGap=4;fontFamily=Architects Daughter;fontSource=https%3A%2F%2Ffonts.googleapis.com%2Fcss%3Ffamily%3DArchitects%2BDaughter;fontSize=20;fontStyle=0;textShadow=1;" edge="1" parent="WIyWlLk6GJQsqaUBKTNV-1" source="42EEFeFm0QrcEyeCjbr3-265" target="42EEFeFm0QrcEyeCjbr3-266">
          <mxGeometry relative="1" as="geometry">
            <Array as="points">
              <mxPoint x="755" y="147" />
            </Array>
          </mxGeometry>
        </mxCell>
        <mxCell id="42EEFeFm0QrcEyeCjbr3-280" value="" style="curved=1;startArrow=none;endArrow=block;exitX=1;exitY=0.5;entryX=0;entryY=0.5;rounded=0;hachureGap=4;fontFamily=Architects Daughter;fontSource=https%3A%2F%2Ffonts.googleapis.com%2Fcss%3Ffamily%3DArchitects%2BDaughter;fontSize=20;fontStyle=0;textShadow=1;" edge="1" parent="WIyWlLk6GJQsqaUBKTNV-1" source="42EEFeFm0QrcEyeCjbr3-265" target="42EEFeFm0QrcEyeCjbr3-267">
          <mxGeometry relative="1" as="geometry">
            <Array as="points" />
          </mxGeometry>
        </mxCell>
        <mxCell id="42EEFeFm0QrcEyeCjbr3-281" value="" style="curved=1;startArrow=none;endArrow=block;exitX=0.57;exitY=1;entryX=0;entryY=0.5;rounded=0;hachureGap=4;fontFamily=Architects Daughter;fontSource=https%3A%2F%2Ffonts.googleapis.com%2Fcss%3Ffamily%3DArchitects%2BDaughter;fontSize=20;fontStyle=0;textShadow=1;" edge="1" parent="WIyWlLk6GJQsqaUBKTNV-1" source="42EEFeFm0QrcEyeCjbr3-265" target="42EEFeFm0QrcEyeCjbr3-268">
          <mxGeometry relative="1" as="geometry">
            <Array as="points">
              <mxPoint x="755" y="875" />
            </Array>
          </mxGeometry>
        </mxCell>
        <mxCell id="42EEFeFm0QrcEyeCjbr3-282" value="" style="curved=1;startArrow=none;endArrow=block;exitX=0.61;exitY=0;entryX=0;entryY=0.5;rounded=0;hachureGap=4;fontFamily=Architects Daughter;fontSource=https%3A%2F%2Ffonts.googleapis.com%2Fcss%3Ffamily%3DArchitects%2BDaughter;fontSize=20;fontStyle=0;textShadow=1;" edge="1" parent="WIyWlLk6GJQsqaUBKTNV-1" source="42EEFeFm0QrcEyeCjbr3-266" target="42EEFeFm0QrcEyeCjbr3-269">
          <mxGeometry relative="1" as="geometry">
            <Array as="points">
              <mxPoint x="961" y="-21" />
            </Array>
          </mxGeometry>
        </mxCell>
        <mxCell id="42EEFeFm0QrcEyeCjbr3-283" value="" style="curved=1;startArrow=none;endArrow=block;exitX=0.84;exitY=0;entryX=0;entryY=0.5;rounded=0;hachureGap=4;fontFamily=Architects Daughter;fontSource=https%3A%2F%2Ffonts.googleapis.com%2Fcss%3Ffamily%3DArchitects%2BDaughter;fontSize=20;fontStyle=0;textShadow=1;" edge="1" parent="WIyWlLk6GJQsqaUBKTNV-1" source="42EEFeFm0QrcEyeCjbr3-266" target="42EEFeFm0QrcEyeCjbr3-270">
          <mxGeometry relative="1" as="geometry">
            <Array as="points">
              <mxPoint x="961" y="95" />
            </Array>
          </mxGeometry>
        </mxCell>
        <mxCell id="42EEFeFm0QrcEyeCjbr3-284" value="" style="curved=1;startArrow=none;endArrow=block;exitX=0.84;exitY=1;entryX=0;entryY=0.5;rounded=0;hachureGap=4;fontFamily=Architects Daughter;fontSource=https%3A%2F%2Ffonts.googleapis.com%2Fcss%3Ffamily%3DArchitects%2BDaughter;fontSize=20;fontStyle=0;textShadow=1;" edge="1" parent="WIyWlLk6GJQsqaUBKTNV-1" source="42EEFeFm0QrcEyeCjbr3-266" target="42EEFeFm0QrcEyeCjbr3-271">
          <mxGeometry relative="1" as="geometry">
            <Array as="points">
              <mxPoint x="961" y="199" />
            </Array>
          </mxGeometry>
        </mxCell>
        <mxCell id="42EEFeFm0QrcEyeCjbr3-285" value="" style="curved=1;startArrow=none;endArrow=block;exitX=0.61;exitY=1;entryX=0;entryY=0.5;rounded=0;hachureGap=4;fontFamily=Architects Daughter;fontSource=https%3A%2F%2Ffonts.googleapis.com%2Fcss%3Ffamily%3DArchitects%2BDaughter;fontSize=20;fontStyle=0;textShadow=1;" edge="1" parent="WIyWlLk6GJQsqaUBKTNV-1" source="42EEFeFm0QrcEyeCjbr3-266" target="42EEFeFm0QrcEyeCjbr3-272">
          <mxGeometry relative="1" as="geometry">
            <Array as="points">
              <mxPoint x="961" y="303" />
            </Array>
          </mxGeometry>
        </mxCell>
        <mxCell id="42EEFeFm0QrcEyeCjbr3-286" value="" style="curved=1;startArrow=none;endArrow=block;exitX=0.61;exitY=0;entryX=0;entryY=0.5;rounded=0;hachureGap=4;fontFamily=Architects Daughter;fontSource=https%3A%2F%2Ffonts.googleapis.com%2Fcss%3Ffamily%3DArchitects%2BDaughter;fontSize=20;fontStyle=0;textShadow=1;" edge="1" parent="WIyWlLk6GJQsqaUBKTNV-1" source="42EEFeFm0QrcEyeCjbr3-267" target="42EEFeFm0QrcEyeCjbr3-273">
          <mxGeometry relative="1" as="geometry">
            <Array as="points">
              <mxPoint x="961" y="407" />
            </Array>
          </mxGeometry>
        </mxCell>
        <mxCell id="42EEFeFm0QrcEyeCjbr3-287" value="" style="curved=1;startArrow=none;endArrow=block;exitX=0.84;exitY=0;entryX=0;entryY=0.5;rounded=0;hachureGap=4;fontFamily=Architects Daughter;fontSource=https%3A%2F%2Ffonts.googleapis.com%2Fcss%3Ffamily%3DArchitects%2BDaughter;fontSize=20;fontStyle=0;textShadow=1;" edge="1" parent="WIyWlLk6GJQsqaUBKTNV-1" source="42EEFeFm0QrcEyeCjbr3-267" target="42EEFeFm0QrcEyeCjbr3-274">
          <mxGeometry relative="1" as="geometry">
            <Array as="points">
              <mxPoint x="961" y="511" />
            </Array>
          </mxGeometry>
        </mxCell>
        <mxCell id="42EEFeFm0QrcEyeCjbr3-288" value="" style="curved=1;startArrow=none;endArrow=block;exitX=0.84;exitY=1;entryX=0;entryY=0.5;rounded=0;hachureGap=4;fontFamily=Architects Daughter;fontSource=https%3A%2F%2Ffonts.googleapis.com%2Fcss%3Ffamily%3DArchitects%2BDaughter;fontSize=20;fontStyle=0;textShadow=1;" edge="1" parent="WIyWlLk6GJQsqaUBKTNV-1" source="42EEFeFm0QrcEyeCjbr3-267" target="42EEFeFm0QrcEyeCjbr3-275">
          <mxGeometry relative="1" as="geometry">
            <Array as="points">
              <mxPoint x="961" y="615" />
            </Array>
          </mxGeometry>
        </mxCell>
        <mxCell id="42EEFeFm0QrcEyeCjbr3-289" value="" style="curved=1;startArrow=none;endArrow=block;exitX=0.61;exitY=1;entryX=0;entryY=0.5;rounded=0;hachureGap=4;fontFamily=Architects Daughter;fontSource=https%3A%2F%2Ffonts.googleapis.com%2Fcss%3Ffamily%3DArchitects%2BDaughter;fontSize=20;fontStyle=0;textShadow=1;" edge="1" parent="WIyWlLk6GJQsqaUBKTNV-1" source="42EEFeFm0QrcEyeCjbr3-267" target="42EEFeFm0QrcEyeCjbr3-276">
          <mxGeometry relative="1" as="geometry">
            <Array as="points">
              <mxPoint x="961" y="719" />
            </Array>
          </mxGeometry>
        </mxCell>
        <mxCell id="42EEFeFm0QrcEyeCjbr3-290" value="" style="curved=1;startArrow=none;endArrow=block;exitX=0.84;exitY=0;entryX=0;entryY=0.5;rounded=0;hachureGap=4;fontFamily=Architects Daughter;fontSource=https%3A%2F%2Ffonts.googleapis.com%2Fcss%3Ffamily%3DArchitects%2BDaughter;fontSize=20;fontStyle=0;textShadow=1;" edge="1" parent="WIyWlLk6GJQsqaUBKTNV-1" source="42EEFeFm0QrcEyeCjbr3-268" target="42EEFeFm0QrcEyeCjbr3-277">
          <mxGeometry relative="1" as="geometry">
            <Array as="points">
              <mxPoint x="961" y="823" />
            </Array>
          </mxGeometry>
        </mxCell>
        <mxCell id="42EEFeFm0QrcEyeCjbr3-291" value="" style="curved=1;startArrow=none;endArrow=block;exitX=0.84;exitY=1;entryX=0;entryY=0.5;rounded=0;hachureGap=4;fontFamily=Architects Daughter;fontSource=https%3A%2F%2Ffonts.googleapis.com%2Fcss%3Ffamily%3DArchitects%2BDaughter;fontSize=20;fontStyle=0;textShadow=1;" edge="1" parent="WIyWlLk6GJQsqaUBKTNV-1" source="42EEFeFm0QrcEyeCjbr3-268" target="42EEFeFm0QrcEyeCjbr3-278">
          <mxGeometry relative="1" as="geometry">
            <Array as="points">
              <mxPoint x="961" y="927" />
            </Array>
          </mxGeometry>
        </mxCell>
      </root>
    </mxGraphModel>
  </diagram>
</mxfile>
